<?xml version="1.0" encoding="utf-8"?>
<!-- Generator: Adobe Illustrator 16.0.4, SVG Export Plug-In . SVG Version: 6.00 Build 0)  -->
<!DOCTYPE svg PUBLIC "-//W3C//DTD SVG 1.1//EN" "http://www.w3.org/Graphics/SVG/1.1/DTD/svg11.dtd">
<svg version="1.1" id="Layer_1" xmlns="http://www.w3.org/2000/svg" xmlns:xlink="http://www.w3.org/1999/xlink" x="0px" y="0px"
	 width="274.486px" height="229.489px" viewBox="0 0 274.486 229.489" enable-background="new 0 0 274.486 229.489"
	 xml:space="preserve">
<g>
	<g>
		<path fill="#1C75BC" d="M223.555,31.014c-1.465,0-2.828,0.083-4.201,0.158l-6.434,10.427c3.467-0.79,7.064-1.187,10.795-1.187
			c4.105,0,8.021,0.567,11.748,1.702c3.729,1.134,7.021,2.811,9.887,5.022c2.859,2.215,5.182,4.97,6.965,8.264
			c1.785,3.296,2.781,7.159,3,11.586h11.02c0-5.939-1.164-11.153-3.486-15.637c-2.324-4.481-5.428-8.237-9.316-11.262
			c-3.889-3.022-8.426-5.292-13.609-6.806C234.734,31.77,229.279,31.014,223.555,31.014z"/>
		<path fill="#1C75BC" d="M268.035,106.364c-1.568-3.347-3.729-6.183-6.482-8.507c-2.756-2.321-5.943-4.267-9.559-5.834
			c-3.621-1.564-7.482-2.889-11.588-3.971l-28.195-6.967c-2.377-0.54-4.619-1.241-6.725-2.107c-2.105-0.863-3.973-1.998-5.59-3.403
			c-1.623-1.402-2.893-3.104-3.811-5.104c-0.145-0.312-0.254-0.651-0.377-0.981l-6.637,10.756c0.789,0.995,1.627,1.938,2.561,2.782
			c2.373,2.163,5.156,3.889,8.344,5.187c3.184,1.296,6.455,2.376,9.803,3.24l25.768,6.32c2.697,0.648,5.451,1.486,8.262,2.511
			c2.807,1.028,5.373,2.35,7.695,3.97c2.322,1.62,4.215,3.621,5.672,5.996c1.461,2.376,2.189,5.185,2.189,8.426
			c0,4.212-1.027,7.806-3.078,10.776c-2.055,2.972-4.621,5.403-7.697,7.292c-3.078,1.891-6.4,3.269-9.967,4.131
			c-3.566,0.867-6.861,1.297-9.883,1.297c-5.295,0-10.266-0.511-14.91-1.54c-4.646-1.025-8.668-2.728-12.07-5.104
			c-3.404-2.375-6.078-5.563-8.023-9.561c-1.943-3.995-2.861-8.965-2.754-14.908h-11.02c-0.322,7.13,0.621,13.234,2.836,18.312
			c2.213,5.079,5.373,9.235,9.48,12.477c4.105,3.241,9.072,5.646,14.906,7.211c5.836,1.565,12.154,2.35,18.961,2.35
			c6.805,0,12.641-0.623,17.5-1.863c4.861-1.241,8.938-2.862,12.234-4.862c3.293-1.997,5.887-4.238,7.777-6.725
			c1.889-2.484,3.348-4.943,4.377-7.373c1.025-2.431,1.674-4.724,1.943-6.886c0.27-2.161,0.406-3.89,0.406-5.187
			C270.385,113.764,269.598,109.714,268.035,106.364z"/>
	</g>
	<g>
		<path fill="#1C75BC" d="M83.596,138.542c-5.211,1.679-10.768,2.531-16.68,2.531c-14.822,0-27.098-4.747-36.83-14.243
			c-9.732-9.494-14.598-21.335-14.598-35.526c0-9.388,2.176-17.842,6.525-25.358c4.352-7.518,10.482-13.503,18.396-17.961
			c7.914-4.457,16.51-6.687,25.793-6.687c8.494,0,16.287,1.702,23.381,5.104c7.094,3.402,13.176,8.399,18.24,14.993l9.178-7.041
			c-5.592-7.755-12.768-13.781-21.521-18.08c-8.758-4.3-18.568-6.449-29.436-6.449c-17.986,0-32.953,5.815-44.9,17.446
			C9.195,58.904,3.221,73.238,3.221,90.276c0,16.194,4.934,30.014,14.799,41.459c11.762,13.559,27.824,20.335,48.184,20.335
			c3.23,0,6.355-0.206,9.398-0.573L83.596,138.542z"/>
		<path fill="#1C75BC" d="M104.65,140.613c4.658-3.275,8.779-7.18,12.352-11.725l-3.486-2.643L104.65,140.613z"/>
	</g>
	<g>
		<polygon fill="#00AEEF" points="172.674,39.113 155.281,39.113 99.883,128.896 99.881,128.896 95.168,136.536 95.168,136.536 
			91.727,142.112 91.727,142.112 88.285,147.689 88.285,147.689 88.246,147.754 88.244,147.754 84.844,153.266 102.234,153.266 
			103.895,150.574 103.896,150.574 		"/>
		<polygon fill="#00AEEF" points="81.402,158.843 98.793,158.843 101.758,154.041 84.365,154.041 		"/>
		<polygon fill="#00AEEF" points="77.961,164.42 95.352,164.42 97.879,160.325 80.486,160.325 		"/>
		<polygon fill="#00AEEF" points="74.52,169.998 91.91,169.998 94,166.612 76.609,166.612 		"/>
		<polygon fill="#00AEEF" points="71.076,175.575 88.469,175.575 90.121,172.899 72.73,172.899 		"/>
		<polygon fill="#00AEEF" points="67.637,181.151 85.027,181.151 86.24,179.183 68.85,179.183 		"/>
		<polygon fill="#00AEEF" points="64.195,186.729 81.584,186.729 82.361,185.47 64.971,185.47 		"/>
		<polygon fill="#00AEEF" points="189.17,36.804 185.771,42.316 185.771,42.316 185.732,42.382 185.729,42.382 182.289,47.958 
			182.289,47.958 178.012,54.888 178.012,54.888 174.131,61.175 174.135,61.175 118.729,150.958 136.119,150.958 199.279,48.604 
			199.281,48.604 201.857,44.429 203.16,42.316 203.16,42.316 203.664,41.5 204.9,39.497 204.9,39.497 206.561,36.804 		"/>
		<polygon fill="#00AEEF" points="189.648,36.031 207.039,36.031 210.004,31.228 192.611,31.228 		"/>
		<polygon fill="#00AEEF" points="193.527,29.744 210.92,29.744 213.443,25.65 196.053,25.65 		"/>
		<polygon fill="#00AEEF" points="197.406,23.459 214.799,23.459 216.887,20.073 199.494,20.073 		"/>
		<polygon fill="#00AEEF" points="201.285,17.173 218.676,17.173 220.326,14.495 202.936,14.495 		"/>
		<polygon fill="#00AEEF" points="205.166,10.888 222.557,10.888 223.77,8.92 206.379,8.92 		"/>
		<polygon fill="#00AEEF" points="209.818,3.342 209.045,4.601 226.436,4.601 227.209,3.342 		"/>
	</g>
</g>
<text transform="matrix(1 0 0 1 35.1406 224.9165)" fill="#1C75BC" font-family="'HelveticaNeue-Light'" font-size="32">consent2share</text>
</svg>
