<?xml version="1.0" encoding="utf-8"?>
<!-- Generator: Adobe Illustrator 16.0.4, SVG Export Plug-In . SVG Version: 6.00 Build 0)  -->
<!DOCTYPE svg PUBLIC "-//W3C//DTD SVG 1.1//EN" "http://www.w3.org/Graphics/SVG/1.1/DTD/svg11.dtd">
<svg version="1.1" id="Layer_1" xmlns="http://www.w3.org/2000/svg" xmlns:xlink="http://www.w3.org/1999/xlink" x="0px" y="0px"
	 width="274.486px" height="192.892px" viewBox="0 0 274.486 192.892" enable-background="new 0 0 274.486 192.892"
	 xml:space="preserve">
<g>
	<g>
		<path fill="#1C75BC" d="M224.49,33.492c-1.465,0-2.828,0.083-4.201,0.158l-6.434,10.427c3.467-0.79,7.064-1.187,10.795-1.187
			c4.105,0,8.021,0.567,11.748,1.702c3.729,1.134,7.021,2.811,9.887,5.022c2.859,2.215,5.182,4.97,6.965,8.264
			c1.785,3.296,2.781,7.159,3,11.586h11.02c0-5.939-1.164-11.153-3.486-15.637c-2.324-4.481-5.428-8.237-9.316-11.262
			c-3.889-3.022-8.426-5.292-13.609-6.806C235.67,34.248,230.215,33.492,224.49,33.492z"/>
		<path fill="#1C75BC" d="M268.971,108.842c-1.568-3.347-3.729-6.183-6.482-8.507c-2.756-2.321-5.943-4.267-9.559-5.834
			c-3.621-1.564-7.482-2.889-11.588-3.971l-28.195-6.967c-2.377-0.54-4.619-1.241-6.725-2.107c-2.105-0.863-3.973-1.998-5.59-3.403
			c-1.623-1.402-2.893-3.104-3.811-5.104c-0.145-0.312-0.254-0.651-0.377-0.981l-6.637,10.756c0.789,0.995,1.627,1.938,2.561,2.782
			c2.373,2.163,5.156,3.889,8.344,5.187c3.184,1.296,6.455,2.376,9.803,3.24l25.768,6.32c2.697,0.648,5.451,1.486,8.262,2.511
			c2.807,1.028,5.373,2.35,7.695,3.97c2.322,1.62,4.215,3.621,5.672,5.996c1.461,2.376,2.189,5.185,2.189,8.426
			c0,4.212-1.027,7.806-3.078,10.776c-2.055,2.972-4.621,5.403-7.697,7.292c-3.078,1.891-6.4,3.269-9.967,4.131
			c-3.566,0.867-6.861,1.297-9.883,1.297c-5.295,0-10.266-0.511-14.91-1.54c-4.646-1.025-8.668-2.728-12.07-5.104
			c-3.404-2.375-6.078-5.563-8.023-9.561c-1.943-3.995-2.861-8.965-2.754-14.908h-11.02c-0.322,7.13,0.621,13.234,2.836,18.312
			c2.213,5.079,5.373,9.235,9.48,12.477c4.105,3.241,9.072,5.646,14.906,7.211c5.836,1.565,12.154,2.35,18.961,2.35
			c6.805,0,12.641-0.623,17.5-1.863c4.861-1.241,8.938-2.862,12.234-4.862c3.293-1.997,5.887-4.238,7.777-6.725
			c1.889-2.484,3.348-4.943,4.377-7.373c1.025-2.431,1.674-4.724,1.943-6.886c0.27-2.161,0.406-3.89,0.406-5.187
			C271.32,116.242,270.533,112.192,268.971,108.842z"/>
	</g>
	<g>
		<path fill="#1C75BC" d="M84.531,141.02c-5.211,1.679-10.768,2.531-16.68,2.531c-14.822,0-27.098-4.747-36.83-14.243
			c-9.732-9.494-14.598-21.335-14.598-35.526c0-9.388,2.176-17.842,6.525-25.358c4.352-7.518,10.482-13.503,18.396-17.961
			c7.914-4.457,16.51-6.687,25.793-6.687c8.494,0,16.287,1.702,23.381,5.104c7.094,3.402,13.176,8.399,18.24,14.993l9.178-7.041
			c-5.592-7.755-12.768-13.781-21.521-18.08c-8.758-4.3-18.568-6.449-29.436-6.449c-17.986,0-32.953,5.815-44.9,17.446
			C10.131,61.382,4.156,75.716,4.156,92.754c0,16.194,4.934,30.014,14.799,41.459c11.762,13.559,27.824,20.335,48.184,20.335
			c3.23,0,6.355-0.206,9.398-0.573L84.531,141.02z"/>
		<path fill="#1C75BC" d="M105.586,143.091c4.658-3.275,8.779-7.18,12.352-11.725l-3.486-2.643L105.586,143.091z"/>
	</g>
	<g>
		<polygon fill="#00AEEF" points="173.609,41.591 156.217,41.591 100.818,131.374 100.816,131.374 96.104,139.014 96.104,139.014 
			92.662,144.59 92.662,144.59 89.221,150.167 89.221,150.167 89.182,150.232 89.18,150.232 85.779,155.744 103.17,155.744 
			104.83,153.052 104.832,153.052 		"/>
		<polygon fill="#00AEEF" points="82.338,161.321 99.729,161.321 102.693,156.519 85.301,156.519 		"/>
		<polygon fill="#00AEEF" points="78.896,166.898 96.287,166.898 98.814,162.803 81.422,162.803 		"/>
		<polygon fill="#00AEEF" points="75.455,172.476 92.846,172.476 94.936,169.09 77.545,169.09 		"/>
		<polygon fill="#00AEEF" points="72.012,178.053 89.404,178.053 91.057,175.377 73.666,175.377 		"/>
		<polygon fill="#00AEEF" points="68.572,183.629 85.963,183.629 87.176,181.661 69.785,181.661 		"/>
		<polygon fill="#00AEEF" points="65.131,189.207 82.52,189.207 83.297,187.948 65.906,187.948 		"/>
		<polygon fill="#00AEEF" points="190.105,39.282 186.707,44.794 186.707,44.794 186.668,44.86 186.664,44.86 183.225,50.436 
			183.225,50.436 178.947,57.366 178.947,57.366 175.066,63.653 175.07,63.653 119.664,153.436 137.055,153.436 200.215,51.082 
			200.217,51.082 202.793,46.907 204.096,44.794 204.096,44.794 204.6,43.978 205.836,41.975 205.836,41.975 207.496,39.282 		"/>
		<polygon fill="#00AEEF" points="190.584,38.509 207.975,38.509 210.939,33.706 193.547,33.706 		"/>
		<polygon fill="#00AEEF" points="194.463,32.222 211.855,32.222 214.379,28.128 196.988,28.128 		"/>
		<polygon fill="#00AEEF" points="198.342,25.937 215.734,25.937 217.822,22.551 200.43,22.551 		"/>
		<polygon fill="#00AEEF" points="202.221,19.651 219.611,19.651 221.262,16.973 203.871,16.973 		"/>
		<polygon fill="#00AEEF" points="206.102,13.366 223.492,13.366 224.705,11.398 207.314,11.398 		"/>
		<polygon fill="#00AEEF" points="210.754,5.82 209.98,7.079 227.371,7.079 228.145,5.82 		"/>
	</g>
</g>
</svg>
