<?xml version="1.0" encoding="utf-8"?>
<!-- Generator: Adobe Illustrator 16.0.4, SVG Export Plug-In . SVG Version: 6.00 Build 0)  -->
<!DOCTYPE svg PUBLIC "-//W3C//DTD SVG 1.1//EN" "http://www.w3.org/Graphics/SVG/1.1/DTD/svg11.dtd">
<svg version="1.1" id="Layer_1" xmlns="http://www.w3.org/2000/svg" xmlns:xlink="http://www.w3.org/1999/xlink" x="0px" y="0px"
	 width="303.419px" height="234.534px" viewBox="0 0 303.419 234.534" enable-background="new 0 0 303.419 234.534"
	 xml:space="preserve">
<g>
	<path fill="#1C75BC" d="M9.704,214.581l3.652,12.232h0.055l3.488-12.232h1.963l3.487,12.232h0.055l3.654-12.232h1.854l-4.594,14.28
		h-1.907l-3.517-12.01H17.84l-3.486,12.01h-1.91l-4.594-14.28H9.704z"/>
	<path fill="#1C75BC" d="M30.209,214.581l3.653,12.232h0.055l3.487-12.232h1.965l3.485,12.232h0.057l3.651-12.232h1.854
		l-4.593,14.28h-1.91l-3.515-12.01h-0.056l-3.486,12.01h-1.908l-4.596-14.28H30.209z"/>
	<path fill="#1C75BC" d="M50.715,214.581l3.652,12.232h0.057l3.487-12.232h1.964l3.486,12.232h0.056l3.652-12.232h1.854
		l-4.594,14.28h-1.91l-3.514-12.01H58.85l-3.485,12.01h-1.91l-4.595-14.28H50.715z"/>
	<path fill="#1C75BC" d="M70.309,225.928h2.323v2.934h-2.323V225.928z"/>
	<path fill="#1C75BC" d="M85.722,216.546c-0.646-0.609-1.55-0.913-2.713-0.913c-0.83,0-1.56,0.175-2.185,0.526
		c-0.628,0.35-1.15,0.812-1.564,1.383c-0.416,0.572-0.73,1.222-0.942,1.951c-0.211,0.729-0.317,1.472-0.317,2.228
		c0,0.756,0.106,1.5,0.317,2.228c0.212,0.73,0.526,1.379,0.942,1.951c0.414,0.572,0.937,1.034,1.564,1.384
		c0.625,0.35,1.354,0.526,2.185,0.526c0.536,0,1.043-0.102,1.522-0.305c0.479-0.203,0.903-0.484,1.273-0.844
		c0.367-0.36,0.674-0.79,0.912-1.288c0.238-0.497,0.39-1.041,0.442-1.632h1.743c-0.24,1.735-0.876,3.086-1.908,4.055
		c-1.035,0.969-2.362,1.453-3.985,1.453c-1.089,0-2.054-0.198-2.892-0.595c-0.84-0.397-1.546-0.937-2.117-1.619
		c-0.573-0.682-1.006-1.481-1.301-2.394c-0.295-0.914-0.442-1.886-0.442-2.92c0-1.033,0.147-2.006,0.442-2.919
		c0.295-0.914,0.728-1.711,1.301-2.395c0.571-0.682,1.277-1.227,2.117-1.632c0.838-0.406,1.803-0.61,2.892-0.61
		c1.53,0,2.826,0.407,3.889,1.219c1.062,0.811,1.691,2.039,1.895,3.68h-1.743C86.81,217.995,86.366,217.156,85.722,216.546z"/>
	<path fill="#1C75BC" d="M100.264,214.776c0.839,0.405,1.545,0.95,2.116,1.632c0.572,0.684,1.005,1.481,1.302,2.395
		c0.295,0.913,0.442,1.886,0.442,2.919c0,1.034-0.147,2.006-0.442,2.92c-0.297,0.913-0.729,1.711-1.302,2.394
		c-0.571,0.683-1.277,1.222-2.116,1.619c-0.84,0.396-1.804,0.595-2.892,0.595c-1.09,0-2.053-0.198-2.893-0.595
		c-0.84-0.397-1.545-0.937-2.115-1.619c-0.573-0.682-1.007-1.481-1.302-2.394c-0.295-0.914-0.441-1.886-0.441-2.92
		c0-1.033,0.146-2.006,0.441-2.919c0.295-0.914,0.729-1.711,1.302-2.395c0.57-0.682,1.275-1.227,2.115-1.632
		c0.84-0.406,1.803-0.61,2.893-0.61C98.46,214.166,99.424,214.37,100.264,214.776z M95.187,216.16
		c-0.628,0.35-1.149,0.812-1.564,1.383c-0.415,0.572-0.729,1.222-0.94,1.951c-0.213,0.729-0.317,1.472-0.317,2.228
		c0,0.756,0.104,1.5,0.317,2.228c0.211,0.73,0.525,1.379,0.94,1.951s0.937,1.034,1.564,1.384c0.626,0.35,1.355,0.526,2.186,0.526
		s1.558-0.176,2.187-0.526c0.628-0.35,1.148-0.812,1.563-1.384s0.729-1.221,0.94-1.951c0.212-0.728,0.317-1.471,0.317-2.228
		c0-0.756-0.105-1.499-0.317-2.228c-0.211-0.729-0.525-1.379-0.94-1.951c-0.415-0.57-0.936-1.033-1.563-1.383
		c-0.629-0.351-1.356-0.526-2.187-0.526S95.812,215.809,95.187,216.16z"/>
	<path fill="#1C75BC" d="M108.441,214.581v2.464h0.056c0.332-0.867,0.922-1.563,1.771-2.09c0.848-0.525,1.781-0.789,2.795-0.789
		c0.996,0,1.83,0.13,2.505,0.389c0.673,0.258,1.212,0.623,1.619,1.092c0.405,0.471,0.692,1.047,0.857,1.731
		c0.166,0.683,0.25,1.448,0.25,2.296v9.188h-1.745v-8.91c0-0.61-0.055-1.177-0.165-1.703c-0.111-0.526-0.305-0.982-0.582-1.37
		c-0.275-0.388-0.649-0.691-1.12-0.914c-0.472-0.221-1.057-0.332-1.757-0.332c-0.702,0-1.323,0.125-1.868,0.374
		s-1.005,0.59-1.385,1.023c-0.377,0.433-0.673,0.951-0.885,1.549c-0.211,0.6-0.327,1.25-0.346,1.951v8.33h-1.744v-14.28H108.441z"/>
	<path fill="#1C75BC" d="M129.805,217.362c-0.203-0.395-0.478-0.724-0.815-0.981c-0.343-0.259-0.734-0.447-1.178-0.567
		c-0.444-0.12-0.912-0.18-1.412-0.18c-0.388,0-0.779,0.042-1.175,0.125c-0.396,0.083-0.763,0.222-1.095,0.415
		c-0.33,0.194-0.601,0.447-0.803,0.761c-0.203,0.313-0.305,0.701-0.305,1.162c0,0.388,0.097,0.716,0.29,0.982
		c0.196,0.268,0.439,0.494,0.734,0.678c0.293,0.185,0.617,0.337,0.97,0.457c0.349,0.12,0.673,0.217,0.968,0.29l2.323,0.526
		c0.5,0.074,0.992,0.208,1.482,0.4c0.487,0.195,0.922,0.448,1.302,0.761c0.378,0.314,0.688,0.701,0.926,1.163
		c0.239,0.462,0.359,1.006,0.359,1.632c0,0.775-0.176,1.435-0.525,1.979c-0.35,0.544-0.797,0.987-1.342,1.329
		c-0.546,0.341-1.158,0.585-1.84,0.733c-0.686,0.147-1.355,0.221-2.022,0.221c-1.679,0-3.038-0.396-4.08-1.19
		c-1.043-0.792-1.64-2.066-1.783-3.819h1.742c0.071,1.181,0.501,2.072,1.286,2.67c0.784,0.6,1.757,0.9,2.92,0.9
		c0.422,0,0.861-0.045,1.316-0.139c0.448-0.092,0.868-0.25,1.256-0.471c0.39-0.22,0.707-0.501,0.955-0.843
		c0.25-0.341,0.375-0.761,0.375-1.26c0-0.424-0.09-0.78-0.266-1.065c-0.174-0.286-0.41-0.527-0.704-0.72
		c-0.295-0.194-0.633-0.354-1.009-0.484c-0.379-0.129-0.764-0.24-1.149-0.333l-2.242-0.498c-0.572-0.148-1.098-0.318-1.575-0.513
		c-0.482-0.193-0.9-0.433-1.26-0.719c-0.362-0.286-0.643-0.636-0.845-1.052c-0.203-0.415-0.304-0.928-0.304-1.536
		c0-0.72,0.158-1.338,0.482-1.855c0.323-0.516,0.743-0.931,1.259-1.245c0.517-0.313,1.093-0.544,1.731-0.692
		c0.635-0.146,1.268-0.222,1.894-0.222c0.72,0,1.392,0.093,2.009,0.278c0.618,0.185,1.163,0.471,1.631,0.857
		c0.471,0.388,0.845,0.868,1.12,1.438c0.279,0.572,0.435,1.246,0.473,2.02h-1.745C130.119,218.225,130.007,217.76,129.805,217.362z"
		/>
	<path fill="#1C75BC" d="M136.182,224.143c0.178,0.674,0.458,1.278,0.845,1.812c0.388,0.536,0.878,0.979,1.466,1.329
		c0.59,0.35,1.302,0.526,2.132,0.526c1.272,0,2.271-0.333,2.99-0.997s1.216-1.55,1.492-2.657h1.743
		c-0.368,1.624-1.047,2.878-2.033,3.764c-0.987,0.885-2.385,1.329-4.192,1.329c-1.127,0-2.098-0.198-2.919-0.595
		c-0.822-0.397-1.49-0.941-2.008-1.633c-0.516-0.691-0.897-1.494-1.147-2.407s-0.372-1.878-0.372-2.893
		c0-0.94,0.122-1.863,0.372-2.767c0.25-0.904,0.632-1.712,1.147-2.422c0.518-0.709,1.186-1.281,2.008-1.716
		c0.821-0.433,1.792-0.65,2.919-0.65c1.144,0,2.121,0.231,2.933,0.693c0.812,0.461,1.471,1.065,1.979,1.812
		c0.507,0.747,0.874,1.604,1.095,2.574c0.22,0.968,0.312,1.951,0.276,2.946H135.92C135.92,222.819,136.007,223.47,136.182,224.143z
		 M144.816,218.816c-0.214-0.608-0.512-1.147-0.897-1.619c-0.39-0.47-0.861-0.848-1.412-1.135c-0.553-0.285-1.181-0.429-1.883-0.429
		c-0.72,0-1.356,0.144-1.909,0.429c-0.556,0.288-1.023,0.665-1.412,1.135c-0.389,0.471-0.696,1.015-0.926,1.633
		s-0.385,1.25-0.457,1.896h9.244C145.145,220.061,145.027,219.425,144.816,218.816z"/>
	<path fill="#1C75BC" d="M150.975,214.581v2.464h0.053c0.334-0.867,0.922-1.563,1.771-2.09c0.851-0.525,1.781-0.789,2.795-0.789
		c0.996,0,1.831,0.13,2.506,0.389c0.673,0.258,1.212,0.623,1.619,1.092c0.405,0.471,0.691,1.047,0.856,1.731
		c0.165,0.683,0.25,1.448,0.25,2.296v9.188h-1.745v-8.91c0-0.61-0.055-1.177-0.166-1.703c-0.111-0.526-0.303-0.982-0.579-1.37
		c-0.277-0.388-0.652-0.691-1.122-0.914c-0.471-0.221-1.054-0.332-1.758-0.332c-0.701,0-1.323,0.125-1.867,0.374
		c-0.543,0.249-1.006,0.59-1.383,1.023c-0.378,0.433-0.676,0.951-0.886,1.549c-0.212,0.6-0.327,1.25-0.345,1.951v8.33h-1.745v-14.28
		H150.975z"/>
	<path fill="#1C75BC" d="M169.789,214.581v1.468h-2.906v9.63c0,0.572,0.08,1.02,0.237,1.342c0.157,0.324,0.55,0.503,1.179,0.539
		c0.496,0,0.993-0.027,1.49-0.083v1.467c-0.255,0-0.517,0.009-0.772,0.028c-0.26,0.018-0.517,0.028-0.777,0.028
		c-1.16,0-1.973-0.226-2.433-0.679c-0.463-0.452-0.685-1.287-0.665-2.505v-9.768h-2.491v-1.468h2.491v-4.289h1.741v4.289H169.789z"
		/>
	<path fill="#1C75BC" d="M171.645,228.861c0.018-0.96,0.185-1.808,0.498-2.546c0.312-0.737,0.728-1.402,1.245-1.992
		c0.517-0.59,1.099-1.13,1.744-1.619c0.644-0.489,1.31-0.958,1.992-1.411c0.683-0.452,1.36-0.914,2.033-1.384
		s1.277-0.973,1.812-1.508c0.534-0.536,0.938-1.084,1.205-1.646c0.265-0.562,0.4-1.232,0.4-2.007c0-0.627-0.116-1.185-0.346-1.674
		c-0.23-0.489-0.545-0.904-0.94-1.245c-0.397-0.341-0.857-0.6-1.384-0.775c-0.525-0.175-1.085-0.263-1.674-0.263
		c-0.794,0-1.474,0.147-2.034,0.443c-0.562,0.294-1.021,0.691-1.368,1.19c-0.353,0.497-0.606,1.07-0.763,1.716
		c-0.157,0.646-0.229,1.328-0.209,2.048h-1.742c-0.019-0.997,0.097-1.914,0.345-2.754c0.249-0.84,0.634-1.563,1.149-2.173
		c0.516-0.608,1.166-1.083,1.952-1.425c0.782-0.34,1.7-0.511,2.751-0.511c0.85,0,1.637,0.115,2.365,0.346
		c0.729,0.231,1.365,0.572,1.912,1.023c0.543,0.453,0.968,1.02,1.274,1.703c0.304,0.683,0.453,1.476,0.453,2.38
		c0,0.812-0.133,1.549-0.4,2.214c-0.267,0.663-0.628,1.273-1.079,1.826c-0.451,0.554-0.968,1.065-1.549,1.536
		c-0.582,0.47-1.194,0.908-1.842,1.314c-0.461,0.315-1.003,0.659-1.631,1.038c-0.627,0.379-1.231,0.799-1.812,1.26
		c-0.582,0.46-1.094,0.964-1.537,1.508c-0.442,0.545-0.72,1.14-0.83,1.785h10.766v1.605H171.645z"/>
	<path fill="#1C75BC" d="M195.914,217.362c-0.202-0.395-0.477-0.724-0.816-0.981c-0.34-0.259-0.733-0.447-1.174-0.567
		c-0.444-0.12-0.916-0.18-1.416-0.18c-0.386,0-0.777,0.042-1.173,0.125c-0.397,0.083-0.763,0.222-1.095,0.415
		c-0.331,0.194-0.599,0.447-0.801,0.761c-0.203,0.313-0.305,0.701-0.305,1.162c0,0.388,0.096,0.716,0.29,0.982
		c0.192,0.268,0.439,0.494,0.732,0.678c0.295,0.185,0.618,0.337,0.972,0.457c0.348,0.12,0.67,0.217,0.964,0.29l2.327,0.526
		c0.497,0.074,0.989,0.208,1.482,0.4c0.487,0.195,0.922,0.448,1.298,0.761c0.377,0.314,0.685,0.701,0.927,1.163
		c0.242,0.462,0.362,1.006,0.362,1.632c0,0.775-0.18,1.435-0.526,1.979c-0.352,0.544-0.801,0.987-1.343,1.329
		c-0.545,0.341-1.158,0.585-1.841,0.733c-0.683,0.147-1.355,0.221-2.02,0.221c-1.68,0-3.042-0.396-4.083-1.19
		c-1.044-0.792-1.637-2.066-1.784-3.819h1.745c0.072,1.181,0.502,2.072,1.284,2.67c0.787,0.6,1.756,0.9,2.92,0.9
		c0.425,0,0.863-0.045,1.315-0.139c0.45-0.092,0.87-0.25,1.257-0.471c0.389-0.22,0.71-0.501,0.956-0.843
		c0.25-0.341,0.377-0.761,0.377-1.26c0-0.424-0.093-0.78-0.267-1.065c-0.173-0.286-0.41-0.527-0.705-0.72
		c-0.295-0.194-0.631-0.354-1.011-0.484c-0.378-0.129-0.76-0.24-1.146-0.333l-2.245-0.498c-0.569-0.148-1.095-0.318-1.575-0.513
		c-0.481-0.193-0.901-0.433-1.26-0.719c-0.359-0.286-0.64-0.636-0.844-1.052c-0.201-0.415-0.303-0.928-0.303-1.536
		c0-0.72,0.159-1.338,0.482-1.855c0.324-0.516,0.744-0.931,1.26-1.245c0.516-0.313,1.092-0.544,1.728-0.692
		c0.638-0.146,1.27-0.222,1.897-0.222c0.72,0,1.388,0.093,2.005,0.278c0.618,0.185,1.162,0.471,1.635,0.857
		c0.468,0.388,0.845,0.868,1.12,1.438c0.273,0.572,0.435,1.246,0.473,2.02h-1.748C196.225,218.225,196.119,217.76,195.914,217.362z"
		/>
	<path fill="#1C75BC" d="M202.722,209.103v7.942h0.056c0.33-0.867,0.922-1.563,1.771-2.09c0.848-0.525,1.778-0.789,2.794-0.789
		c0.997,0,1.83,0.13,2.505,0.389c0.675,0.258,1.212,0.623,1.617,1.092c0.405,0.471,0.694,1.047,0.859,1.731
		c0.166,0.683,0.25,1.448,0.25,2.296v9.188h-1.744v-8.91c0-0.61-0.055-1.177-0.166-1.703c-0.111-0.526-0.304-0.982-0.582-1.37
		c-0.277-0.388-0.649-0.691-1.119-0.914c-0.471-0.221-1.058-0.332-1.758-0.332c-0.701,0-1.323,0.125-1.867,0.374
		c-0.546,0.249-1.006,0.59-1.386,1.023c-0.378,0.433-0.673,0.951-0.885,1.549c-0.213,0.6-0.328,1.25-0.346,1.951v8.33h-1.742
		v-19.759H202.722z"/>
	<path fill="#1C75BC" d="M216.225,216.796c0.295-0.608,0.697-1.107,1.205-1.495c0.506-0.387,1.103-0.673,1.782-0.857
		c0.685-0.185,1.44-0.278,2.272-0.278c0.626,0,1.251,0.061,1.88,0.181c0.626,0.119,1.192,0.345,1.688,0.677
		c0.497,0.333,0.902,0.799,1.217,1.398c0.314,0.6,0.47,1.38,0.47,2.337v7.583c0,0.701,0.343,1.052,1.025,1.052
		c0.203,0,0.386-0.038,0.553-0.111v1.466c-0.202,0.038-0.383,0.065-0.54,0.083s-0.354,0.028-0.595,0.028
		c-0.443,0-0.798-0.059-1.065-0.18c-0.268-0.12-0.476-0.291-0.623-0.511c-0.147-0.222-0.244-0.486-0.289-0.79
		c-0.046-0.304-0.07-0.641-0.07-1.01h-0.056c-0.312,0.461-0.632,0.872-0.954,1.232c-0.322,0.36-0.683,0.659-1.078,0.899
		c-0.397,0.241-0.85,0.423-1.355,0.554c-0.51,0.128-1.112,0.193-1.812,0.193c-0.667,0-1.289-0.079-1.869-0.236
		c-0.58-0.156-1.088-0.405-1.522-0.747s-0.774-0.775-1.022-1.301c-0.248-0.526-0.375-1.149-0.375-1.868
		c0-0.997,0.223-1.775,0.664-2.339c0.445-0.562,1.028-0.99,1.758-1.286c0.729-0.295,1.549-0.503,2.463-0.623
		c0.913-0.119,1.84-0.235,2.78-0.347c0.37-0.036,0.692-0.083,0.97-0.137c0.275-0.055,0.508-0.153,0.69-0.291
		c0.185-0.138,0.329-0.329,0.43-0.567c0.101-0.241,0.152-0.554,0.152-0.942c0-0.589-0.097-1.074-0.29-1.453
		c-0.195-0.377-0.463-0.678-0.803-0.899c-0.344-0.222-0.739-0.374-1.189-0.457c-0.452-0.083-0.938-0.125-1.453-0.125
		c-1.107,0-2.012,0.263-2.714,0.789c-0.698,0.525-1.068,1.37-1.104,2.532h-1.745C215.754,218.125,215.93,217.405,216.225,216.796z
		 M224.942,221.058c-0.112,0.203-0.323,0.35-0.638,0.442c-0.314,0.092-0.59,0.157-0.83,0.193c-0.739,0.129-1.498,0.246-2.283,0.347
		c-0.784,0.101-1.499,0.253-2.144,0.456c-0.647,0.204-1.178,0.494-1.593,0.873c-0.415,0.377-0.621,0.918-0.621,1.618
		c0,0.443,0.088,0.835,0.263,1.176c0.176,0.342,0.41,0.636,0.706,0.886c0.295,0.249,0.635,0.438,1.022,0.566
		c0.387,0.13,0.785,0.195,1.191,0.195c0.663,0,1.301-0.102,1.908-0.305c0.609-0.203,1.14-0.499,1.593-0.885
		c0.452-0.388,0.812-0.858,1.079-1.411c0.266-0.554,0.4-1.181,0.4-1.882v-2.269H224.942z"/>
	<path fill="#1C75BC" d="M231.832,214.581v3.349h0.056c0.441-1.162,1.129-2.056,2.062-2.684c0.931-0.627,2.043-0.914,3.335-0.858
		v1.744c-0.795-0.037-1.513,0.069-2.157,0.317c-0.647,0.25-1.205,0.605-1.677,1.066c-0.47,0.462-0.835,1.01-1.093,1.647
		c-0.258,0.636-0.388,1.333-0.388,2.089v7.61h-1.742v-14.28H231.832z"/>
	<path fill="#1C75BC" d="M239.732,224.143c0.177,0.674,0.457,1.278,0.845,1.812c0.386,0.536,0.876,0.979,1.468,1.329
		c0.59,0.35,1.302,0.526,2.132,0.526c1.271,0,2.268-0.333,2.987-0.997c0.719-0.664,1.219-1.55,1.493-2.657h1.745
		c-0.368,1.624-1.047,2.878-2.033,3.764c-0.987,0.885-2.385,1.329-4.192,1.329c-1.127,0-2.1-0.198-2.92-0.595
		c-0.821-0.397-1.492-0.941-2.007-1.633c-0.52-0.691-0.9-1.494-1.148-2.407c-0.25-0.914-0.374-1.878-0.374-2.893
		c0-0.94,0.124-1.863,0.374-2.767c0.248-0.904,0.629-1.712,1.148-2.422c0.515-0.709,1.186-1.281,2.007-1.716
		c0.82-0.433,1.793-0.65,2.92-0.65c1.141,0,2.121,0.231,2.933,0.693c0.811,0.461,1.471,1.065,1.978,1.812
		c0.508,0.747,0.872,1.604,1.095,2.574c0.221,0.968,0.312,1.951,0.273,2.946H239.47C239.47,222.819,239.558,223.47,239.732,224.143z
		 M248.369,218.816c-0.214-0.608-0.514-1.147-0.901-1.619c-0.386-0.47-0.857-0.848-1.411-1.135c-0.554-0.285-1.18-0.429-1.88-0.429
		c-0.722,0-1.356,0.144-1.912,0.429c-0.553,0.288-1.022,0.665-1.409,1.135c-0.389,0.471-0.698,1.015-0.929,1.633
		c-0.229,0.618-0.382,1.25-0.457,1.896h9.243C248.694,220.061,248.58,219.425,248.369,218.816z"/>
	<path fill="#1C75BC" d="M253.832,225.928h2.323v2.934h-2.323V225.928z"/>
	<path fill="#1C75BC" d="M269.427,214.776c0.841,0.405,1.544,0.95,2.116,1.632c0.572,0.684,1.007,1.481,1.302,2.395
		c0.295,0.913,0.444,1.886,0.444,2.919c0,1.034-0.149,2.006-0.444,2.92c-0.295,0.913-0.729,1.711-1.302,2.394
		c-0.572,0.683-1.275,1.222-2.116,1.619c-0.84,0.396-1.802,0.595-2.892,0.595c-1.088,0-2.053-0.198-2.893-0.595
		c-0.838-0.397-1.545-0.937-2.117-1.619c-0.572-0.682-1.003-1.481-1.301-2.394c-0.293-0.914-0.44-1.886-0.44-2.92
		c0-1.033,0.147-2.006,0.44-2.919c0.298-0.914,0.729-1.711,1.301-2.395c0.572-0.682,1.279-1.227,2.117-1.632
		c0.84-0.406,1.805-0.61,2.893-0.61C267.625,214.166,268.587,214.37,269.427,214.776z M264.35,216.16
		c-0.629,0.35-1.149,0.812-1.564,1.383c-0.415,0.572-0.729,1.222-0.94,1.951c-0.213,0.729-0.319,1.472-0.319,2.228
		c0,0.756,0.106,1.5,0.319,2.228c0.212,0.73,0.525,1.379,0.94,1.951s0.936,1.034,1.564,1.384c0.628,0.35,1.355,0.526,2.186,0.526
		s1.56-0.176,2.188-0.526c0.625-0.35,1.146-0.812,1.561-1.384c0.416-0.572,0.729-1.221,0.941-1.951
		c0.213-0.728,0.318-1.471,0.318-2.228c0-0.756-0.105-1.499-0.318-2.228c-0.212-0.729-0.525-1.379-0.941-1.951
		c-0.414-0.57-0.936-1.033-1.561-1.383c-0.628-0.351-1.357-0.526-2.188-0.526S264.978,215.809,264.35,216.16z"/>
	<path fill="#1C75BC" d="M277.492,214.581v3.349h0.056c0.442-1.162,1.13-2.056,2.062-2.684c0.931-0.627,2.045-0.914,3.335-0.858
		v1.744c-0.794-0.037-1.513,0.069-2.157,0.317c-0.647,0.25-1.204,0.605-1.675,1.066c-0.472,0.462-0.835,1.01-1.093,1.647
		c-0.26,0.636-0.39,1.333-0.39,2.089v7.61h-1.742v-14.28H277.492z"/>
	<path fill="#1C75BC" d="M296.324,230.549c-0.231,0.849-0.594,1.568-1.094,2.16c-0.496,0.59-1.148,1.041-1.95,1.355
		c-0.803,0.313-1.785,0.47-2.947,0.47c-0.721,0-1.421-0.082-2.104-0.249c-0.683-0.167-1.295-0.424-1.839-0.775
		c-0.546-0.351-0.996-0.799-1.357-1.342c-0.358-0.545-0.565-1.196-0.621-1.951h1.742c0.091,0.534,0.272,0.982,0.541,1.342
		c0.265,0.36,0.588,0.651,0.967,0.871c0.38,0.222,0.8,0.384,1.26,0.486c0.461,0.101,0.933,0.151,1.411,0.151
		c1.622,0,2.795-0.461,3.515-1.384c0.72-0.922,1.078-2.251,1.078-3.985v-1.938h-0.054c-0.405,0.885-1.002,1.596-1.784,2.131
		c-0.787,0.536-1.703,0.803-2.755,0.803c-1.143,0-2.123-0.188-2.934-0.567c-0.812-0.377-1.479-0.899-2.005-1.562
		c-0.525-0.665-0.91-1.445-1.149-2.339c-0.242-0.895-0.358-1.85-0.358-2.865c0-0.978,0.141-1.904,0.429-2.781
		c0.284-0.875,0.699-1.641,1.245-2.296c0.542-0.655,1.217-1.171,2.02-1.549c0.802-0.379,1.718-0.569,2.753-0.569
		c0.534,0,1.039,0.075,1.51,0.222c0.468,0.147,0.897,0.355,1.285,0.623c0.387,0.269,0.734,0.577,1.039,0.927
		c0.304,0.351,0.538,0.72,0.705,1.107h0.054v-2.464h1.744v13.118C296.67,228.75,296.557,229.701,296.324,230.549z M292.325,226.745
		c0.572-0.323,1.052-0.748,1.438-1.273c0.39-0.525,0.68-1.131,0.875-1.812c0.192-0.683,0.288-1.384,0.288-2.103
		c0-0.701-0.081-1.402-0.248-2.104c-0.166-0.701-0.434-1.338-0.803-1.91c-0.37-0.57-0.843-1.033-1.425-1.383
		c-0.581-0.351-1.287-0.526-2.117-0.526s-1.541,0.17-2.13,0.512c-0.591,0.341-1.081,0.789-1.468,1.342
		c-0.388,0.554-0.668,1.186-0.845,1.895c-0.176,0.711-0.263,1.435-0.263,2.174c0,0.719,0.092,1.42,0.277,2.103
		c0.185,0.682,0.472,1.287,0.857,1.812c0.388,0.525,0.875,0.95,1.467,1.273c0.591,0.322,1.291,0.484,2.104,0.484
		C291.09,227.229,291.753,227.066,292.325,226.745z"/>
</g>
<g>
	<g>
		<path fill="#1C75BC" d="M239.01,33.492c-1.465,0-2.828,0.083-4.2,0.158l-6.435,10.427c3.467-0.79,7.064-1.187,10.795-1.187
			c4.105,0,8.022,0.567,11.748,1.702c3.729,1.134,7.021,2.811,9.887,5.022c2.859,2.215,5.183,4.97,6.966,8.264
			c1.784,3.296,2.781,7.159,2.999,11.586h11.02c0-5.939-1.164-11.153-3.486-15.637c-2.323-4.481-5.428-8.237-9.315-11.262
			c-3.89-3.022-8.427-5.292-13.61-6.806C250.19,34.248,244.734,33.492,239.01,33.492z"/>
		<path fill="#1C75BC" d="M283.49,108.842c-1.567-3.347-3.728-6.183-6.482-8.507c-2.755-2.321-5.942-4.267-9.559-5.834
			c-3.621-1.564-7.482-2.889-11.587-3.971l-28.195-6.967c-2.378-0.54-4.62-1.241-6.726-2.107c-2.104-0.863-3.972-1.998-5.59-3.403
			c-1.622-1.402-2.892-3.104-3.81-5.104c-0.145-0.312-0.255-0.651-0.378-0.981l-6.637,10.756c0.789,0.995,1.628,1.938,2.561,2.782
			c2.374,2.163,5.157,3.889,8.344,5.187c3.184,1.296,6.455,2.376,9.804,3.24l25.767,6.32c2.697,0.648,5.451,1.486,8.263,2.511
			c2.806,1.028,5.372,2.35,7.695,3.97c2.322,1.62,4.215,3.621,5.672,5.996c1.46,2.376,2.188,5.185,2.188,8.426
			c0,4.212-1.027,7.806-3.078,10.776c-2.055,2.972-4.62,5.403-7.697,7.292c-3.078,1.891-6.4,3.269-9.967,4.131
			c-3.565,0.867-6.861,1.297-9.883,1.297c-5.295,0-10.266-0.511-14.91-1.54c-4.646-1.025-8.668-2.728-12.07-5.104
			c-3.404-2.375-6.077-5.563-8.022-9.561c-1.943-3.995-2.862-8.965-2.755-14.908h-11.02c-0.321,7.13,0.621,13.234,2.837,18.312
			c2.213,5.079,5.372,9.235,9.479,12.477c4.105,3.241,9.073,5.646,14.907,7.211c5.836,1.565,12.153,2.35,18.96,2.35
			c6.806,0,12.641-0.623,17.501-1.863c4.86-1.241,8.938-2.862,12.234-4.862c3.293-1.997,5.886-4.238,7.777-6.725
			c1.889-2.484,3.348-4.943,4.376-7.373c1.025-2.431,1.675-4.724,1.944-6.886c0.269-2.161,0.405-3.89,0.405-5.187
			C285.84,116.242,285.053,112.192,283.49,108.842z"/>
	</g>
	<g>
		<path fill="#1C75BC" d="M99.052,141.02c-5.212,1.679-10.768,2.531-16.68,2.531c-14.823,0-27.099-4.747-36.831-14.243
			c-9.732-9.494-14.598-21.335-14.598-35.526c0-9.388,2.176-17.842,6.525-25.358c4.353-7.518,10.483-13.503,18.397-17.961
			c7.913-4.457,16.509-6.687,25.793-6.687c8.493,0,16.287,1.702,23.381,5.104c7.094,3.402,13.175,8.399,18.239,14.993l9.178-7.041
			c-5.592-7.755-12.768-13.781-21.521-18.08c-8.759-4.3-18.569-6.449-29.437-6.449c-17.986,0-32.953,5.815-44.9,17.446
			C24.651,61.382,18.677,75.716,18.677,92.754c0,16.194,4.933,30.014,14.798,41.459c11.762,13.559,27.824,20.335,48.185,20.335
			c3.229,0,6.354-0.206,9.397-0.573L99.052,141.02z"/>
		<path fill="#1C75BC" d="M120.106,143.091c4.658-3.275,8.778-7.18,12.351-11.725l-3.485-2.643L120.106,143.091z"/>
	</g>
	<g>
		<polygon fill="#00AEEF" points="188.13,41.591 170.737,41.591 115.339,131.374 115.337,131.374 110.624,139.014 110.624,139.014 
			107.182,144.59 107.182,144.59 103.74,150.167 103.74,150.167 103.702,150.232 103.699,150.232 100.299,155.744 117.689,155.744 
			119.35,153.052 119.353,153.052 		"/>
		<polygon fill="#00AEEF" points="96.857,161.321 114.249,161.321 117.214,156.519 99.821,156.519 		"/>
		<polygon fill="#00AEEF" points="93.416,166.898 110.807,166.898 113.334,162.803 95.942,162.803 		"/>
		<polygon fill="#00AEEF" points="89.975,172.476 107.365,172.476 109.455,169.09 92.064,169.09 		"/>
		<polygon fill="#00AEEF" points="86.532,178.053 103.924,178.053 105.577,175.377 88.187,175.377 		"/>
		<polygon fill="#00AEEF" points="83.092,183.629 100.482,183.629 101.696,181.661 84.305,181.661 		"/>
		<polygon fill="#00AEEF" points="79.651,189.207 97.04,189.207 97.817,187.948 80.427,187.948 		"/>
		<polygon fill="#00AEEF" points="204.625,39.282 201.227,44.794 201.228,44.794 201.188,44.86 201.185,44.86 197.745,50.436 
			197.744,50.436 193.467,57.366 193.467,57.366 189.587,63.653 189.59,63.653 134.185,153.436 151.575,153.436 214.735,51.082 
			214.737,51.082 217.312,46.907 218.615,44.794 218.615,44.794 219.12,43.978 220.355,41.975 220.355,41.975 222.017,39.282 		"/>
		<polygon fill="#00AEEF" points="205.104,38.509 222.494,38.509 225.459,33.706 208.067,33.706 		"/>
		<polygon fill="#00AEEF" points="208.982,32.222 226.375,32.222 228.899,28.128 211.508,28.128 		"/>
		<polygon fill="#00AEEF" points="212.862,25.937 230.254,25.937 232.342,22.551 214.95,22.551 		"/>
		<polygon fill="#00AEEF" points="216.74,19.651 234.132,19.651 235.782,16.973 218.392,16.973 		"/>
		<polygon fill="#00AEEF" points="220.622,13.366 238.013,13.366 239.225,11.398 221.834,11.398 		"/>
		<polygon fill="#00AEEF" points="225.274,5.82 224.5,7.079 241.891,7.079 242.665,5.82 		"/>
	</g>
</g>
</svg>
